<?xml version="1.0" standalone="no"?>
<!DOCTYPE svg PUBLIC "-//W3C//DTD SVG 20010904//EN"
 "http://www.w3.org/TR/2001/REC-SVG-20010904/DTD/svg10.dtd">
<svg version="1.0" xmlns="http://www.w3.org/2000/svg"
 width="401.000000pt" height="401.000000pt" viewBox="0 0 401.000000 401.000000"
 preserveAspectRatio="xMidYMid meet">
<metadata>
Created by potrace 1.11, written by Peter Selinger 2001-2013
</metadata>
<g transform="translate(0.000000,401.000000) scale(0.100000,-0.100000)"
fill="#000000" stroke="none">
<path d="M1967 3993 c-3 -5 -60 -134 -127 -288 -67 -154 -130 -298 -140 -320
-142 -315 -390 -887 -454 -1047 -128 -320 -250 -701 -282 -878 -3 -14 -9 -41
-14 -60 -4 -19 -11 -57 -15 -85 -4 -27 -9 -61 -11 -75 -21 -137 -26 -370 -12
-483 18 -141 72 -289 142 -392 38 -56 164 -173 224 -208 129 -76 275 -122 457
-144 121 -15 501 -7 575 12 8 2 34 7 56 10 61 8 220 62 288 96 231 118 361
291 423 564 28 126 23 446 -10 615 -76 386 -183 711 -415 1255 -70 163 -126
290 -175 395 -19 41 -46 100 -60 130 -28 62 -85 185 -142 305 -75 161 -295
605 -300 605 -2 0 -6 -3 -8 -7z"/>
</g>
</svg>
